<svg xmlns="http://www.w3.org/2000/svg" viewBox="0 0 64 64">
  <rect width="64" height="64" rx="15" fill="#151711"/>
  <circle cx="32" cy="32" r="23" fill="#ff4d2e"/>
  <circle cx="24" cy="23" r="5" fill="#fff" fill-opacity=".58"/>
  <path d="M23 25.5c.8-6.1 4.7-9.2 10.4-9.2 6.2 0 10.3 3.6 10.3 9.1 0 4.3-2.1 6.6-6.1 9.2-3.1 2-4.1 3.7-4.1 6.8v1.1h-6.1v-1.6c0-4.5 1.5-7.1 5.2-9.5 3-2 4.2-3.4 4.2-5.7 0-2.5-1.6-4.1-4.1-4.1-2.7 0-4.3 1.6-4.7 4.8z" fill="#f0eee7"/>
  <circle cx="30.6" cy="49.3" r="3.7" fill="#f0eee7"/>
</svg>
